<?xml version="1.0" encoding="UTF-8" standalone="no"?>
<!-- Created with Inkscape (http://www.inkscape.org/) -->

<svg
   xmlns:dc="http://purl.org/dc/elements/1.1/"
   xmlns:cc="http://creativecommons.org/ns#"
   xmlns:rdf="http://www.w3.org/1999/02/22-rdf-syntax-ns#"
   xmlns:svg="http://www.w3.org/2000/svg"
   xmlns="http://www.w3.org/2000/svg"
   xmlns:sodipodi="http://sodipodi.sourceforge.net/DTD/sodipodi-0.dtd"
   xmlns:inkscape="http://www.inkscape.org/namespaces/inkscape"
   width="65.711441mm"
   height="65.711441mm"
   viewBox="0 0 65.711441 65.711441"
   version="1.1"
   id="svg8"
   inkscape:version="0.92.1 r15371"
   sodipodi:docname="logo.svg">
  <defs
     id="defs2" />
  <sodipodi:namedview
     id="base"
     pagecolor="#ffffff"
     bordercolor="#666666"
     borderopacity="1.0"
     inkscape:pageopacity="0.0"
     inkscape:pageshadow="2"
     inkscape:zoom="0.86851852"
     inkscape:cx="132.74969"
     inkscape:cy="118.4655"
     inkscape:document-units="mm"
     inkscape:current-layer="layer1"
     showgrid="false"
     fit-margin-top="0"
     fit-margin-left="0"
     fit-margin-right="0"
     fit-margin-bottom="0"
     inkscape:window-width="1366"
     inkscape:window-height="705"
     inkscape:window-x="-8"
     inkscape:window-y="-8"
     inkscape:window-maximized="1" />
  <metadata
     id="metadata5">
    <rdf:RDF>
      <cc:Work
         rdf:about="">
        <dc:format>image/svg+xml</dc:format>
        <dc:type
           rdf:resource="http://purl.org/dc/dcmitype/StillImage" />
        <dc:title></dc:title>
      </cc:Work>
    </rdf:RDF>
  </metadata>
  <g
     inkscape:label="Capa 1"
     inkscape:groupmode="layer"
     id="layer1"
     transform="translate(-22.329025,-44.162317)">
    <path
       id="path838"
       d="M 55.184746,44.162317 A 32.855719,32.855719 0 0 0 22.329025,77.018038 32.855719,32.855719 0 0 0 55.184746,109.87376 32.855719,32.855719 0 0 0 88.040467,77.018038 32.855719,32.855719 0 0 0 55.184746,44.162317 Z"
       style="fill:#0a1c28;fill-opacity:1;stroke:none;stroke-width:0.32907462;stroke-miterlimit:4;stroke-dasharray:none;stroke-opacity:1"
       inkscape:connector-curvature="0" />
    <path
       style="fill:#0a1c28;fill-opacity:1;stroke:#ffffff;stroke-width:14.98582649;stroke-miterlimit:4;stroke-dasharray:none;stroke-opacity:1"
       d="m 208.57227,191.0918 a 99.999994,99.999994 0 0 0 -100,100 99.999994,99.999994 0 0 0 100,100 99.999994,99.999994 0 0 0 100,-100 99.999994,99.999994 0 0 0 -100,-100 z"
       transform="scale(0.26458333)"
       id="path10"
       inkscape:connector-curvature="0" />
    <path
       sodipodi:type="star"
       style="fill:#0a1c28;fill-opacity:1;stroke:#ffffff;stroke-width:3.35006499;stroke-miterlimit:4;stroke-dasharray:none;stroke-opacity:1"
       id="path834"
       sodipodi:sides="5"
       sodipodi:cx="56.310081"
       sodipodi:cy="78.290344"
       sodipodi:r1="18.606407"
       sodipodi:r2="12.760519"
       sodipodi:arg1="0.7951066"
       sodipodi:arg2="1.4058965"
       inkscape:flatsided="false"
       inkscape:rounded="0"
       inkscape:randomized="0"
       d="m 69.338449,91.57417 -10.933683,-0.696406 -10.702367,3.908222 -2.716372,-10.613752 -7.024153,-8.970848 9.254873,-5.863254 6.361201,-9.452511 8.436198,6.990062 10.955592,3.128875 -4.041016,10.18335 z"
       inkscape:transform-center-x="1.7678701"
       inkscape:transform-center-y="0.009339165"
       transform="rotate(-9.6493177,56.310082,78.290344)" />
  </g>
</svg>
